# xmcd
#
# Track frame offsets:
#	182
#	13767
#	27017
#	38767
#	47742
#	58542
#	69155
#	81367
#	92017
#	103105
#	115667
#	126892
#	137105
#	152142
#	163117
#	175217
#	184817
#	195342
#
# Disc length: 2778 seconds
#
# Revision: 1
# Processed by: cddbd v1.5.1PL2 Copyright (c) Steve Scherf et al.
# Submitted via: EasyCDDAExtractor 6.0.0.1
#
DISCID=e90ad812
DTITLE=Dolly Parton - Country Music CM005
DYEAR=1999
DGENRE=Country
TTITLE0=Everything's Beautiful (In It's Own Way) ('82)
TTITLE1=Daddy Won't Be Here Anymore ('70)
TTITLE2=I'm Not Worth The Tears ('70)
TTITLE3=Hillybilly Willy ('70)
TTITLE4=Why, Why, Why ('70)
TTITLE5=Put It Off Until Tomorrow ('67)
TTITLE6=Fuel To The Flame ('67)
TTITLE7=I Wasted My Tears ('67)
TTITLE8=I Couldn't Wait Forever ('70)
TTITLE9=As Long As I Love ('70)
TTITLE10=The Giving And Thanking ('67)
TTITLE11=I'm In No Condition ('67)
TTITLE12=A Habit I Can't Break ('70)
TTITLE13=Too Lonely Too Long ('70)
TTITLE14=I've Lived My Life ('67)
TTITLE15=I Don't Want You Around Anymore ('70)
TTITLE16=Release Me ('82)
TTITLE17=Little Blossom ('68)
EXTD=
EXTT0=
EXTT1=
EXTT2=
EXTT3=
EXTT4=
EXTT5=
EXTT6=
EXTT7=
EXTT8=
EXTT9=
EXTT10=
EXTT11=
EXTT12=
EXTT13=
EXTT14=
EXTT15=
EXTT16=
EXTT17=
PLAYORDER=
